<?xml version="1.0" encoding="UTF-8" standalone="no"?>
<svg
   xmlns:dc="http://purl.org/dc/elements/1.1/"
   xmlns:cc="http://creativecommons.org/ns#"
   xmlns:rdf="http://www.w3.org/1999/02/22-rdf-syntax-ns#"
   xmlns:svg="http://www.w3.org/2000/svg"
   xmlns="http://www.w3.org/2000/svg"
   xmlns:sodipodi="http://sodipodi.sourceforge.net/DTD/sodipodi-0.dtd"
   xmlns:inkscape="http://www.inkscape.org/namespaces/inkscape"
   id="line_Icons"
   height="512"
   viewBox="0 0 74 74"
   width="512"
   data-name="line Icons"
   version="1.1"
   sodipodi:docname="income-chart.svg"
   inkscape:export-filename="D:\11_Coding\R\nfl4th\data-raw\income-chart-white.png"
   inkscape:export-xdpi="600"
   inkscape:export-ydpi="600"
   inkscape:version="1.0.1 (3bc2e813f5, 2020-09-07)">
  <metadata
     id="metadata45">
    <rdf:RDF>
      <cc:Work
         rdf:about="">
        <dc:format>image/svg+xml</dc:format>
        <dc:type
           rdf:resource="http://purl.org/dc/dcmitype/StillImage" />
      </cc:Work>
    </rdf:RDF>
  </metadata>
  <defs
     id="defs43" />
  <sodipodi:namedview
     pagecolor="#ffffff"
     bordercolor="#666666"
     borderopacity="1"
     objecttolerance="10"
     gridtolerance="10"
     guidetolerance="10"
     inkscape:pageopacity="0"
     inkscape:pageshadow="2"
     inkscape:window-width="1920"
     inkscape:window-height="1137"
     id="namedview41"
     showgrid="false"
     inkscape:zoom="1.3644951"
     inkscape:cx="187.3108"
     inkscape:cy="230.64195"
     inkscape:window-x="-8"
     inkscape:window-y="-8"
     inkscape:window-maximized="1"
     inkscape:current-layer="line_Icons" />
  <path
     d="m14.166 60.331h-9a1 1 0 0 1 -1-1v-26.686a1 1 0 0 1 1-1h9a1 1 0 0 1 1 1v26.686a1 1 0 0 1 -1 1zm-8-2h7v-24.686h-7z"
     id="path2"
     style="stroke:none;stroke-opacity:1;fill:#e5e5e5;fill-opacity:1;stroke-width:0.578125;stroke-miterlimit:4;stroke-dasharray:none"
     inkscape:export-xdpi="600.03998"
     inkscape:export-ydpi="600.03998" />
  <path
     d="m30.708 60.331h-9a1 1 0 0 1 -1-1v-32.437a1 1 0 0 1 1-1h9a1 1 0 0 1 1 1v32.437a1 1 0 0 1 -1 1zm-8-2h7v-30.437h-7z"
     id="path4"
     style="stroke:none;stroke-opacity:1;fill:#e5e5e5;fill-opacity:1;stroke-width:0.578125;stroke-miterlimit:4;stroke-dasharray:none"
     inkscape:export-xdpi="600.03998"
     inkscape:export-ydpi="600.03998" />
  <path
     d="m47.249 27.447a1 1 0 0 1 -1-1v-10.352h-7.006v10.352a1 1 0 1 1 -2 0v-11.352a1 1 0 0 1 1-1h9.005a1 1 0 0 1 1 1v11.352a1 1 0 0 1 -.999 1z"
     id="path6"
     style="stroke:none;stroke-opacity:1;fill:#e5e5e5;fill-opacity:1;stroke-width:0.578125;stroke-miterlimit:4;stroke-dasharray:none"
     inkscape:export-xdpi="600.03998"
     inkscape:export-ydpi="600.03998" />
  <path
     d="m9.665 29.04a4.261 4.261 0 1 1 4.261-4.261 4.265 4.265 0 0 1 -4.261 4.261zm0-6.521a2.261 2.261 0 1 0 2.261 2.261 2.263 2.263 0 0 0 -2.261-2.262z"
     id="path8"
     style="stroke:none;stroke-opacity:1;fill:#e5e5e5;fill-opacity:1;stroke-width:0.578125;stroke-miterlimit:4;stroke-dasharray:none"
     inkscape:export-xdpi="600.03998"
     inkscape:export-ydpi="600.03998" />
  <path
     d="m26.206 23.251a4.261 4.261 0 1 1 4.261-4.261 4.265 4.265 0 0 1 -4.261 4.261zm0-6.521a2.261 2.261 0 1 0 2.261 2.261 2.263 2.263 0 0 0 -2.261-2.262z"
     id="path10"
     style="stroke:none;stroke-opacity:1;fill:#e5e5e5;fill-opacity:1;stroke-width:0.578125;stroke-miterlimit:4;stroke-dasharray:none"
     inkscape:export-xdpi="600.03998"
     inkscape:export-ydpi="600.03998" />
  <path
     d="m42.747 10.521a4.261 4.261 0 1 1 4.261-4.261 4.266 4.266 0 0 1 -4.261 4.261zm0-6.521a2.261 2.261 0 1 0 2.261 2.261 2.263 2.263 0 0 0 -2.261-2.261z"
     id="path12"
     style="stroke:none;stroke-opacity:1;fill:#e5e5e5;fill-opacity:1;stroke-width:0.578125;stroke-miterlimit:4;stroke-dasharray:none"
     inkscape:export-xdpi="600.03998"
     inkscape:export-ydpi="600.03998" />
  <path
     d="m28.94 18.212a1 1 0 0 1 -.639-1.77l11.073-9.177a1 1 0 1 1 1.276 1.54l-11.072 9.177a1 1 0 0 1 -.638.23z"
     id="path14"
     style="stroke:none;stroke-opacity:1;fill:#e5e5e5;fill-opacity:1;stroke-width:0.578125;stroke-miterlimit:4;stroke-dasharray:none"
     inkscape:export-xdpi="600.03998"
     inkscape:export-ydpi="600.03998" />
  <path
     d="m12.71 24.625a1 1 0 0 1 -.307-1.952l10.484-3.381a1 1 0 1 1 .614 1.9l-10.484 3.384a.991.991 0 0 1 -.307.049z"
     id="path16"
     style="stroke:none;stroke-opacity:1;fill:#e5e5e5;fill-opacity:1;stroke-width:0.578125;stroke-miterlimit:4;stroke-dasharray:none"
     inkscape:export-xdpi="600.03998"
     inkscape:export-ydpi="600.03998" />
  <path
     d="m67.028 72h-29.658a2.813 2.813 0 0 1 -2.81-2.81v-40.929a2.813 2.813 0 0 1 2.81-2.81h29.658a2.813 2.813 0 0 1 2.81 2.81v40.929a2.813 2.813 0 0 1 -2.81 2.81zm-29.658-44.549a.811.811 0 0 0 -.81.81v40.929a.811.811 0 0 0 .81.81h29.658a.811.811 0 0 0 .81-.81v-40.929a.811.811 0 0 0 -.81-.81z"
     id="path18"
     style="stroke:none;stroke-opacity:1;fill:#e5e5e5;fill-opacity:1;stroke-width:0.578125;stroke-miterlimit:4;stroke-dasharray:none"
     inkscape:export-xdpi="600.03998"
     inkscape:export-ydpi="600.03998" />
  <path
     d="m64.98 41.535h-25.563a1 1 0 0 1 -1-1v-10.03a1 1 0 0 1 1-1h25.563a1 1 0 0 1 1 1v10.03a1 1 0 0 1 -1 1zm-24.563-2h23.563v-8.03h-23.563z"
     id="path20"
     style="stroke:none;stroke-opacity:1;fill:#e5e5e5;fill-opacity:1;stroke-width:0.578125;stroke-miterlimit:4;stroke-dasharray:none"
     inkscape:export-xdpi="600.03998"
     inkscape:export-ydpi="600.03998" />
  <path
     d="m44.093 50.989h-4.678a1 1 0 0 1 -1-1v-4.678a1 1 0 0 1 1-1h4.678a1 1 0 0 1 1 1v4.679a1 1 0 0 1 -1 .999zm-3.678-2h2.678v-2.678h-2.678z"
     id="path22"
     style="stroke:none;stroke-opacity:1;fill:#e5e5e5;fill-opacity:1;stroke-width:0.578125;stroke-miterlimit:4;stroke-dasharray:none"
     inkscape:export-xdpi="600.03998"
     inkscape:export-ydpi="600.03998" />
  <path
     d="m54.538 50.989h-4.678a1 1 0 0 1 -1-1v-4.678a1 1 0 0 1 1-1h4.678a1 1 0 0 1 1 1v4.679a1 1 0 0 1 -1 .999zm-3.678-2h2.678v-2.678h-2.678z"
     id="path24"
     style="stroke:none;stroke-opacity:1;fill:#e5e5e5;fill-opacity:1;stroke-width:0.578125;stroke-miterlimit:4;stroke-dasharray:none"
     inkscape:export-xdpi="600.03998"
     inkscape:export-ydpi="600.03998" />
  <path
     d="m64.983 50.989h-4.683a1 1 0 0 1 -1-1v-4.678a1 1 0 0 1 1-1h4.678a1 1 0 0 1 1 1v4.679a1 1 0 0 1 -.995.999zm-3.678-2h2.678v-2.678h-2.683z"
     id="path26"
     style="stroke:none;stroke-opacity:1;fill:#e5e5e5;fill-opacity:1;stroke-width:0.578125;stroke-miterlimit:4;stroke-dasharray:none"
     inkscape:export-xdpi="600.03998"
     inkscape:export-ydpi="600.03998" />
  <path
     d="m44.093 59.586h-4.678a1 1 0 0 1 -1-1v-4.679a1 1 0 0 1 1-1h4.678a1 1 0 0 1 1 1v4.679a1 1 0 0 1 -1 1zm-3.678-2h2.678v-2.679h-2.678z"
     id="path28"
     style="stroke:none;stroke-opacity:1;fill:#e5e5e5;fill-opacity:1;stroke-width:0.578125;stroke-miterlimit:4;stroke-dasharray:none"
     inkscape:export-xdpi="600.03998"
     inkscape:export-ydpi="600.03998" />
  <path
     d="m54.538 59.586h-4.678a1 1 0 0 1 -1-1v-4.679a1 1 0 0 1 1-1h4.678a1 1 0 0 1 1 1v4.679a1 1 0 0 1 -1 1zm-3.678-2h2.678v-2.679h-2.678z"
     id="path30"
     style="stroke:none;stroke-opacity:1;fill:#e5e5e5;fill-opacity:1;stroke-width:0.578125;stroke-miterlimit:4;stroke-dasharray:none"
     inkscape:export-xdpi="600.03998"
     inkscape:export-ydpi="600.03998" />
  <path
     d="m64.983 59.586h-4.683a1 1 0 0 1 -1-1v-4.679a1 1 0 0 1 1-1h4.678a1 1 0 0 1 1 1v4.679a1 1 0 0 1 -.995 1zm-3.678-2h2.678v-2.679h-2.683z"
     id="path32"
     style="stroke:none;stroke-opacity:1;fill:#e5e5e5;fill-opacity:1;stroke-width:0.578125;stroke-miterlimit:4;stroke-dasharray:none"
     inkscape:export-xdpi="600.03998"
     inkscape:export-ydpi="600.03998" />
  <path
     d="m44.093 68.183h-4.678a1 1 0 0 1 -1-1v-4.683a1 1 0 0 1 1-1h4.678a1 1 0 0 1 1 1v4.679a1 1 0 0 1 -1 1.004zm-3.678-2h2.678v-2.683h-2.678z"
     id="path34"
     style="stroke:none;stroke-opacity:1;fill:#e5e5e5;fill-opacity:1;stroke-width:0.578125;stroke-miterlimit:4;stroke-dasharray:none"
     inkscape:export-xdpi="600.03998"
     inkscape:export-ydpi="600.03998" />
  <path
     d="m54.538 68.183h-4.678a1 1 0 0 1 -1-1v-4.683a1 1 0 0 1 1-1h4.678a1 1 0 0 1 1 1v4.679a1 1 0 0 1 -1 1.004zm-3.678-2h2.678v-2.683h-2.678z"
     id="path36"
     style="stroke:none;stroke-opacity:1;fill:#e5e5e5;fill-opacity:1;stroke-width:0.578125;stroke-miterlimit:4;stroke-dasharray:none"
     inkscape:export-xdpi="600.03998"
     inkscape:export-ydpi="600.03998" />
  <path
     d="m64.983 68.183h-4.683a1 1 0 0 1 -1-1v-4.683a1 1 0 0 1 1-1h4.678a1 1 0 0 1 1 1v4.679a1 1 0 0 1 -.995 1.004zm-3.678-2h2.678v-2.683h-2.683z"
     id="path38"
     style="stroke:none;stroke-opacity:1;fill:#e5e5e5;fill-opacity:1;stroke-width:0.578125;stroke-miterlimit:4;stroke-dasharray:none"
     inkscape:export-xdpi="600.03998"
     inkscape:export-ydpi="600.03998" />
</svg>
