<?xml version="1.0" encoding="iso-8859-1"?>
<!-- Generator: Adobe Illustrator 16.0.0, SVG Export Plug-In . SVG Version: 6.00 Build 0)  -->
<!DOCTYPE svg PUBLIC "-//W3C//DTD SVG 1.1//EN" "http://www.w3.org/Graphics/SVG/1.1/DTD/svg11.dtd">
<svg version="1.1" id="Capa_1" xmlns="http://www.w3.org/2000/svg" xmlns:xlink="http://www.w3.org/1999/xlink" x="0px" y="0px"
	 width="475.054px" height="475.054px" viewBox="0 0 475.054 475.054" style="enable-background:new 0 0 475.054 475.054;"
	 xml:space="preserve">
<g>
	<g>
		<path d="M127.834,475.054c88.899,0,177.735-33.794,245.581-101.64c96.227-96.238,123.966-234.723,83.899-355.675
			C421.637,5.925,384.416,0,347.219,0c-88.9,0-177.729,33.792-245.581,101.644C5.409,197.876-22.328,336.361,17.74,457.313
			C53.42,469.135,90.641,475.054,127.834,475.054z M129.399,129.396c58.13-58.134,135.483-90.145,217.82-90.145
			c26.602,0,52.946,3.375,78.533,10.062c27.876,106.211-1.932,218.165-80.104,296.349c-58.127,58.124-135.485,90.14-217.821,90.14
			c-26.602,0-52.94-3.375-78.534-10.059C21.417,319.534,51.232,207.57,129.399,129.396z"/>
		<path d="M160.463,286.837l-24.736,24.738c-7.67,7.658-7.67,20.085,0,27.747c3.829,3.84,8.854,5.755,13.876,5.755
			c5.025,0,10.051-1.915,13.88-5.751l24.74-24.729l28.124,28.12c3.833,3.835,8.858,5.751,13.88,5.751
			c5.025,0,10.05-1.916,13.881-5.751c7.666-7.658,7.666-20.085,0-27.743l-28.13-28.128l22.345-22.342l28.123,28.12
			c3.835,3.835,8.856,5.751,13.886,5.751c5.021,0,10.042-1.916,13.873-5.751c7.667-7.658,7.667-20.085,0-27.752l-28.14-28.136
			l22.337-22.335l28.129,28.13c3.835,3.827,8.856,5.742,13.886,5.742c5.021,0,10.042-1.915,13.873-5.742
			c7.675-7.664,7.675-20.091,0-27.755l-28.128-28.126l23.175-23.177c7.67-7.662,7.67-20.089,0-27.748
			c-7.658-7.67-20.093-7.67-27.751,0l-23.175,23.171l-28.129-28.128c-7.658-7.67-20.093-7.67-27.747,0
			c-7.666,7.662-7.666,20.089,0,27.753l28.124,28.128l-22.343,22.344l-28.128-28.128c-7.662-7.67-20.097-7.67-27.753,0
			c-7.67,7.658-7.67,20.085,0,27.748l28.128,28.124l-22.339,22.35l-28.128-28.128c-7.662-7.67-20.097-7.67-27.751,0
			c-7.67,7.666-7.67,20.085,0,27.751L160.463,286.837z"/>
	</g>
</g>
<g>
</g>
<g>
</g>
<g>
</g>
<g>
</g>
<g>
</g>
<g>
</g>
<g>
</g>
<g>
</g>
<g>
</g>
<g>
</g>
<g>
</g>
<g>
</g>
<g>
</g>
<g>
</g>
<g>
</g>
</svg>
